<svg width="24" height="10" viewBox="0 0 24 10" fill="none" xmlns="http://www.w3.org/2000/svg">
<path d="M8.08807 0.272727V9H6.2983L2.82528 3.96307H2.76989V9H0.660511V0.272727H2.47585L5.91051 5.30114H5.98295V0.272727H8.08807ZM11.2596 9.1108C10.842 9.1108 10.4712 9.04119 10.1474 8.90199C9.82635 8.75994 9.57209 8.54687 9.38459 8.26278C9.19993 7.97585 9.1076 7.61648 9.1076 7.18466C9.1076 6.82102 9.17152 6.5142 9.29936 6.2642C9.4272 6.0142 9.60334 5.81108 9.82777 5.65483C10.0522 5.49858 10.3107 5.38068 10.6033 5.30114C10.896 5.21875 11.2085 5.16335 11.5408 5.13494C11.913 5.10085 12.2127 5.06534 12.44 5.02841C12.6673 4.98864 12.832 4.93324 12.9343 4.86222C13.0394 4.78835 13.092 4.68466 13.092 4.55114V4.52983C13.092 4.31108 13.0167 4.14205 12.8661 4.02273C12.7156 3.90341 12.5124 3.84375 12.2567 3.84375C11.9812 3.84375 11.7596 3.90341 11.592 4.02273C11.4244 4.14205 11.3178 4.30682 11.2724 4.51705L9.3505 4.44886C9.40732 4.05114 9.55362 3.69602 9.78942 3.38352C10.0281 3.06818 10.3548 2.82102 10.7695 2.64205C11.1871 2.46023 11.6886 2.36932 12.2738 2.36932C12.6914 2.36932 13.0763 2.41903 13.4286 2.51847C13.7809 2.61506 14.0877 2.7571 14.3491 2.9446C14.6104 3.12926 14.8121 3.35653 14.9542 3.62642C15.0991 3.89631 15.1715 4.20455 15.1715 4.55114V9H13.2113V8.08807H13.1602C13.0437 8.30966 12.8945 8.49716 12.7127 8.65057C12.5337 8.80398 12.3221 8.91903 12.0778 8.99574C11.8363 9.07244 11.5636 9.1108 11.2596 9.1108ZM11.9031 7.74716C12.1275 7.74716 12.3292 7.7017 12.5082 7.6108C12.69 7.51989 12.8349 7.39489 12.9428 7.2358C13.0508 7.07386 13.1048 6.88636 13.1048 6.6733V6.05114C13.0451 6.08239 12.9727 6.1108 12.8874 6.13636C12.805 6.16193 12.7141 6.18608 12.6147 6.20881C12.5153 6.23153 12.413 6.25142 12.3079 6.26847C12.2028 6.28551 12.1019 6.30114 12.0053 6.31534C11.8093 6.34659 11.6417 6.39489 11.5025 6.46023C11.3661 6.52557 11.261 6.6108 11.1871 6.71591C11.1161 6.81818 11.0806 6.94034 11.0806 7.08239C11.0806 7.2983 11.1573 7.46307 11.3107 7.5767C11.467 7.69034 11.6644 7.74716 11.9031 7.74716ZM23.8732 0.272727V9H22.0835L18.6104 3.96307H18.555V9H16.4457V0.272727H18.261L21.6957 5.30114H21.7681V0.272727H23.8732Z" fill="black"/>
<path d="M8.08807 0.272727H8.33807V0.022727H8.08807V0.272727ZM8.08807 9V9.25H8.33807V9H8.08807ZM6.2983 9L6.09248 9.14191L6.16701 9.25H6.2983V9ZM2.82528 3.96307L3.0311 3.82115L2.95657 3.71307H2.82528V3.96307ZM2.76989 3.96307V3.71307H2.51989V3.96307H2.76989ZM2.76989 9V9.25H3.01989V9H2.76989ZM0.660511 9H0.410511V9.25H0.660511V9ZM0.660511 0.272727V0.022727H0.410511V0.272727H0.660511ZM2.47585 0.272727L2.68229 0.131719L2.60784 0.022727H2.47585V0.272727ZM5.91051 5.30114L5.70407 5.44214L5.77852 5.55114H5.91051V5.30114ZM5.98295 5.30114V5.55114H6.23295V5.30114H5.98295ZM5.98295 0.272727V0.022727H5.73295V0.272727H5.98295ZM7.83807 0.272727V9H8.33807V0.272727H7.83807ZM8.08807 8.75H6.2983V9.25H8.08807V8.75ZM6.50411 8.85809L3.0311 3.82115L2.61947 4.10498L6.09248 9.14191L6.50411 8.85809ZM2.82528 3.71307H2.76989V4.21307H2.82528V3.71307ZM2.51989 3.96307V9H3.01989V3.96307H2.51989ZM2.76989 8.75H0.660511V9.25H2.76989V8.75ZM0.910511 9V0.272727H0.410511V9H0.910511ZM0.660511 0.522727H2.47585V0.022727H0.660511V0.522727ZM2.26941 0.413735L5.70407 5.44214L6.11695 5.16013L2.68229 0.131719L2.26941 0.413735ZM5.91051 5.55114H5.98295V5.05114H5.91051V5.55114ZM6.23295 5.30114V0.272727H5.73295V5.30114H6.23295ZM5.98295 0.522727H8.08807V0.022727H5.98295V0.522727ZM10.1474 8.90199L10.0462 9.13062L10.0486 9.13167L10.1474 8.90199ZM9.38459 8.26278L9.17435 8.39809L9.17594 8.40049L9.38459 8.26278ZM9.29936 6.2642L9.07677 6.15038L9.07677 6.15038L9.29936 6.2642ZM9.82777 5.65483L9.97061 5.86L9.97061 5.86L9.82777 5.65483ZM10.6033 5.30114L10.6689 5.54239L10.6711 5.54178L10.6033 5.30114ZM11.5408 5.13494L11.5621 5.38404L11.5636 5.3839L11.5408 5.13494ZM12.44 5.02841L12.4801 5.27519L12.4831 5.27467L12.44 5.02841ZM12.9343 4.86222L13.0769 5.06756L13.078 5.06676L12.9343 4.86222ZM12.8661 4.02273L13.0214 3.82679L13.0214 3.82679L12.8661 4.02273ZM11.592 4.02273L11.447 3.81906L11.447 3.81906L11.592 4.02273ZM11.2724 4.51705L11.2635 4.76689L11.4725 4.7743L11.5167 4.56988L11.2724 4.51705ZM9.3505 4.44886L9.10301 4.41351L9.06368 4.68885L9.34163 4.69871L9.3505 4.44886ZM9.78942 3.38352L9.59007 3.23266L9.58985 3.23294L9.78942 3.38352ZM10.7695 2.64205L10.8686 2.87159L10.8693 2.87126L10.7695 2.64205ZM13.4286 2.51847L13.3607 2.75907L13.3625 2.75957L13.4286 2.51847ZM14.3491 2.9446L14.2033 3.14774L14.2048 3.14878L14.3491 2.9446ZM14.9542 3.62642L14.733 3.74286L14.7339 3.74467L14.9542 3.62642ZM15.1715 9V9.25H15.4215V9H15.1715ZM13.2113 9H12.9613V9.25H13.2113V9ZM13.2113 8.08807H13.4613V7.83807H13.2113V8.08807ZM13.1602 8.08807V7.83807H13.0091L12.9389 7.97175L13.1602 8.08807ZM12.7127 8.65057L12.5515 8.45949L12.55 8.46075L12.7127 8.65057ZM12.0778 8.99574L12.0029 8.75722L12.0021 8.75747L12.0778 8.99574ZM12.5082 7.6108L12.3964 7.38718L12.395 7.3879L12.5082 7.6108ZM12.9428 7.2358L13.1497 7.37618L13.1508 7.37447L12.9428 7.2358ZM13.1048 6.05114H13.3548V5.63796L12.9888 5.82968L13.1048 6.05114ZM12.8874 6.13636L12.8156 5.8969L12.8133 5.8976L12.8874 6.13636ZM12.3079 6.26847L12.3479 6.51524L12.3479 6.51524L12.3079 6.26847ZM12.0053 6.31534L11.969 6.06798L11.966 6.06846L12.0053 6.31534ZM11.5025 6.46023L11.3963 6.23391L11.3945 6.23477L11.5025 6.46023ZM11.1871 6.71591L10.9826 6.57217L10.9818 6.57331L11.1871 6.71591ZM11.3107 7.5767L11.1619 7.7776L11.1637 7.77889L11.3107 7.5767ZM11.2596 8.8608C10.8698 8.8608 10.5336 8.79587 10.2461 8.67231L10.0486 9.13167C10.4089 9.28652 10.8142 9.3608 11.2596 9.3608V8.8608ZM10.2485 8.67337C9.96986 8.55006 9.7535 8.36789 9.59324 8.12507L9.17594 8.40049C9.39068 8.72586 9.68284 8.96982 10.0462 9.13061L10.2485 8.67337ZM9.59482 8.12749C9.44222 7.89038 9.3576 7.58116 9.3576 7.18466H8.8576C8.8576 7.65179 8.95764 8.06133 9.17436 8.39808L9.59482 8.12749ZM9.3576 7.18466C9.3576 6.84931 9.41664 6.58395 9.52195 6.37803L9.07677 6.15038C8.92639 6.44446 8.8576 6.79274 8.8576 7.18466H9.3576ZM9.52195 6.37803C9.63163 6.16354 9.78078 5.99216 9.97061 5.86L9.68493 5.44966C9.4259 5.63 9.22278 5.86487 9.07677 6.15038L9.52195 6.37803ZM9.97061 5.86C10.1691 5.72179 10.4009 5.61523 10.6689 5.54238L10.5378 5.05989C10.2205 5.14613 9.93527 5.27536 9.68493 5.44966L9.97061 5.86ZM10.6711 5.54178C10.9471 5.46406 11.244 5.41123 11.5621 5.38403L11.5195 4.88585C11.1729 4.91548 10.8448 4.97344 10.5356 5.06049L10.6711 5.54178ZM11.5636 5.3839C11.9385 5.34956 12.2447 5.31343 12.4801 5.27517L12.3999 4.78165C12.1808 4.81725 11.8875 4.85214 11.518 4.88599L11.5636 5.3839ZM12.4831 5.27467C12.7207 5.23308 12.9291 5.17017 13.0769 5.06756L12.7917 4.65687C12.7349 4.69631 12.6138 4.74419 12.3969 4.78215L12.4831 5.27467ZM13.078 5.06676C13.2528 4.94395 13.342 4.76228 13.342 4.55114H12.842C12.842 4.60704 12.826 4.63276 12.7906 4.65767L13.078 5.06676ZM13.342 4.55114V4.52983H12.842V4.55114H13.342ZM13.342 4.52983C13.342 4.2467 13.2406 4.0005 13.0214 3.82679L12.7109 4.21866C12.7928 4.28359 12.842 4.37546 12.842 4.52983H13.342ZM13.0214 3.82679C12.814 3.66241 12.5501 3.59375 12.2567 3.59375V4.09375C12.4747 4.09375 12.6172 4.14441 12.7109 4.21866L13.0214 3.82679ZM12.2567 3.59375C11.9466 3.59375 11.6692 3.66089 11.447 3.81906L11.737 4.22639C11.85 4.14593 12.0158 4.09375 12.2567 4.09375V3.59375ZM11.447 3.81906C11.2261 3.97628 11.086 4.19612 11.028 4.46421L11.5167 4.56988C11.5497 4.41752 11.6226 4.30781 11.737 4.22639L11.447 3.81906ZM11.2812 4.2672L9.35936 4.19902L9.34163 4.69871L11.2635 4.76689L11.2812 4.2672ZM9.59798 4.48422C9.64899 4.12719 9.77933 3.81195 9.98898 3.5341L9.58985 3.23294C9.32791 3.58009 9.16564 3.97509 9.10301 4.41351L9.59798 4.48422ZM9.98877 3.53438C10.1978 3.25815 10.4878 3.03592 10.8686 2.87159L10.6705 2.4125C10.2218 2.60613 9.8583 2.87821 9.59007 3.23266L9.98877 3.53438ZM10.8693 2.87126C11.2479 2.70646 11.7135 2.61932 12.2738 2.61932V2.11932C11.6636 2.11932 11.1264 2.21399 10.6697 2.41283L10.8693 2.87126ZM12.2738 2.61932C12.6716 2.61932 13.0334 2.66668 13.3607 2.75906L13.4965 2.27787C13.1193 2.17139 12.7112 2.11932 12.2738 2.11932V2.61932ZM13.3625 2.75957C13.69 2.84937 13.9691 2.97969 14.2033 3.14774L14.4948 2.74147C14.2063 2.53452 13.8717 2.38074 13.4947 2.27736L13.3625 2.75957ZM14.2048 3.14878C14.4356 3.31183 14.6102 3.50961 14.733 3.74286L15.1754 3.50998C15.0141 3.20346 14.7853 2.94669 14.4933 2.74042L14.2048 3.14878ZM14.7339 3.74467C14.8568 3.97365 14.9215 4.24032 14.9215 4.55114H15.4215C15.4215 4.16877 15.3413 3.81897 15.1745 3.50817L14.7339 3.74467ZM14.9215 4.55114V9H15.4215V4.55114H14.9215ZM15.1715 8.75H13.2113V9.25H15.1715V8.75ZM13.4613 9V8.08807H12.9613V9H13.4613ZM13.2113 7.83807H13.1602V8.33807H13.2113V7.83807ZM12.9389 7.97175C12.8366 8.1663 12.7074 8.32797 12.5515 8.4595L12.8739 8.84164C13.0817 8.66635 13.2508 8.45302 13.3814 8.20439L12.9389 7.97175ZM12.55 8.46075C12.3989 8.59032 12.2178 8.68976 12.0029 8.75722L12.1527 9.23426C12.4264 9.14831 12.6686 9.01764 12.8754 8.84038L12.55 8.46075ZM12.0021 8.75747C11.7894 8.82503 11.5428 8.8608 11.2596 8.8608V9.3608C11.5843 9.3608 11.8832 9.31986 12.1535 9.23401L12.0021 8.75747ZM11.9031 7.99716C12.1621 7.99716 12.4034 7.94443 12.6214 7.83369L12.395 7.3879C12.255 7.45898 12.0928 7.49716 11.9031 7.49716V7.99716ZM12.62 7.8344C12.8378 7.72548 13.0163 7.57273 13.1497 7.37617L12.736 7.09542C12.6534 7.21704 12.5422 7.31429 12.3964 7.38719L12.62 7.8344ZM13.1508 7.37447C13.2888 7.16759 13.3548 6.93084 13.3548 6.6733H12.8548C12.8548 6.84189 12.8128 6.98014 12.7348 7.09712L13.1508 7.37447ZM13.3548 6.6733V6.05114H12.8548V6.6733H13.3548ZM12.9888 5.82968C12.9469 5.85162 12.8901 5.87455 12.8156 5.89691L12.9593 6.37582C13.0552 6.34704 13.1433 6.31315 13.2208 6.27259L12.9888 5.82968ZM12.8133 5.8976C12.738 5.92098 12.6533 5.94353 12.559 5.96509L12.6704 6.45252C12.775 6.42863 12.8721 6.40288 12.9615 6.37513L12.8133 5.8976ZM12.559 5.96509C12.465 5.98658 12.3679 6.00546 12.2679 6.02169L12.3479 6.51524C12.458 6.49738 12.5656 6.47649 12.6704 6.45252L12.559 5.96509ZM12.2679 6.02169C12.1639 6.03856 12.0642 6.05399 11.969 6.068L12.0417 6.56268C12.1396 6.54828 12.2417 6.53247 12.3479 6.51524L12.2679 6.02169ZM11.966 6.06846C11.7531 6.10239 11.5618 6.15622 11.3963 6.23392L11.6087 6.68654C11.7216 6.63356 11.8655 6.59079 12.0447 6.56222L11.966 6.06846ZM11.3945 6.23477C11.2263 6.31534 11.0851 6.42625 10.9826 6.57217L11.3917 6.85965C11.4369 6.79534 11.5059 6.7358 11.6105 6.68568L11.3945 6.23477ZM10.9818 6.57331C10.8777 6.72316 10.8306 6.8968 10.8306 7.08239H11.3306C11.3306 6.98389 11.3545 6.9132 11.3925 6.85851L10.9818 6.57331ZM10.8306 7.08239C10.8306 7.36561 10.9359 7.61015 11.1619 7.77759L11.4595 7.37582C11.3788 7.31599 11.3306 7.23098 11.3306 7.08239H10.8306ZM11.1637 7.77889C11.3718 7.93028 11.6242 7.99716 11.9031 7.99716V7.49716C11.7046 7.49716 11.5621 7.4504 11.4578 7.37452L11.1637 7.77889ZM23.8732 0.272727H24.1232V0.022727H23.8732V0.272727ZM23.8732 9V9.25H24.1232V9H23.8732ZM22.0835 9L21.8776 9.14191L21.9522 9.25H22.0835V9ZM18.6104 3.96307L18.8163 3.82115L18.7417 3.71307H18.6104V3.96307ZM18.555 3.96307V3.71307H18.305V3.96307H18.555ZM18.555 9V9.25H18.805V9H18.555ZM16.4457 9H16.1957V9.25H16.4457V9ZM16.4457 0.272727V0.022727H16.1957V0.272727H16.4457ZM18.261 0.272727L18.4674 0.131719L18.393 0.022727H18.261V0.272727ZM21.6957 5.30114L21.4892 5.44214L21.5637 5.55114H21.6957V5.30114ZM21.7681 5.30114V5.55114H22.0181V5.30114H21.7681ZM21.7681 0.272727V0.022727H21.5181V0.272727H21.7681ZM23.6232 0.272727V9H24.1232V0.272727H23.6232ZM23.8732 8.75H22.0835V9.25H23.8732V8.75ZM22.2893 8.85809L18.8163 3.82115L18.4046 4.10498L21.8776 9.14191L22.2893 8.85809ZM18.6104 3.71307H18.555V4.21307H18.6104V3.71307ZM18.305 3.96307V9H18.805V3.96307H18.305ZM18.555 8.75H16.4457V9.25H18.555V8.75ZM16.6957 9V0.272727H16.1957V9H16.6957ZM16.4457 0.522727H18.261V0.022727H16.4457V0.522727ZM18.0546 0.413735L21.4892 5.44214L21.9021 5.16013L18.4674 0.131719L18.0546 0.413735ZM21.6957 5.55114H21.7681V5.05114H21.6957V5.55114ZM22.0181 5.30114V0.272727H21.5181V5.30114H22.0181ZM21.7681 0.522727H23.8732V0.022727H21.7681V0.522727Z" fill="white"/>
</svg>
